<svg width="100" height="100" viewBox="0 0 100 100" xmlns="http://www.w3.org/2000/svg">
  <pattern id="shamrock" x="0" y="0" width="50" height="50" patternUnits="userSpaceOnUse">
    <g fill="#059669" fill-opacity="0.1">
      <path d="M25 25 L25 20 Q25 15 20 15 Q15 15 15 20 Q15 25 20 25 L25 25 L30 25 Q35 25 35 20 Q35 15 30 15 Q25 15 25 20 L25 25 L25 30 Q25 35 30 35 Q35 35 35 30 Q35 25 30 25 L25 25 L20 25 Q15 25 15 30 Q15 35 20 35 Q25 35 25 30 L25 25"/>
    </g>
  </pattern>
  <rect width="100" height="100" fill="url(#shamrock)" />
</svg>